<?xml version="1.0"?>
<svg xmlns="http://www.w3.org/2000/svg" viewBox="0 0 64 64" width="512" height="512"><g id="Outlines"><g><path d="M50,56a1,1,0,0,0-1,1,3,3,0,0,1-3,3H18a3,3,0,0,1-3-3V40.858a1,1,0,0,0-2,0V57a5.006,5.006,0,0,0,5,5H46a5.006,5.006,0,0,0,5-5A1,1,0,0,0,50,56Z"/><path d="M14,16a1,1,0,0,0,1-1V7a3,3,0,0,1,3-3H46a3,3,0,0,1,3,3V24.615a1,1,0,0,0,2,0V7a5.006,5.006,0,0,0-5-5H18a5.006,5.006,0,0,0-5,5v8A1,1,0,0,0,14,16Z"/><path d="M25,53a3,3,0,0,0,3,3h8a3,3,0,0,0,0-6H28A3,3,0,0,0,25,53Zm12,0a1,1,0,0,1-1,1H28a1,1,0,0,1,0-2h8A1,1,0,0,1,37,53Z"/><circle cx="18" cy="7" r="1"/><circle cx="22" cy="7" r="1"/><path d="M27,37H21a1,1,0,0,0,0,2h6a1,1,0,0,0,0-2Z"/><path d="M13,38a5.009,5.009,0,0,0,4.9-4h7.858a1,1,0,1,0,0-2H20V14H42v9.272a1,1,0,0,0,2,0V13a1,1,0,0,0-1-1H19a1,1,0,0,0-1,1v5H11a1,1,0,0,0-.759.349l-6,7A1,1,0,0,0,4,26v7a1,1,0,0,0,1,1H8.1A5.009,5.009,0,0,0,13,38Zm0-2a3,3,0,1,1,3-3A3,3,0,0,1,13,36ZM11.46,20H12v3a2,2,0,0,1-2,2H7.174ZM6,27h4a4,4,0,0,0,4-4V20h4V32h-.1a5,5,0,0,0-9.8,0H6Z"/><circle cx="13" cy="33" r="1"/><path d="M61.707,45.565l-7.736-7.736a5,5,0,0,0-.637-6.293l-5.656-5.657a3.073,3.073,0,0,0-4.242,0,2.991,2.991,0,0,0-.634.93,3.067,3.067,0,0,0-3.61.485,2.977,2.977,0,0,0-.874,1.954,3.007,3.007,0,0,0-2.541,1.7l-3.655-3.656a2.862,2.862,0,0,0-1.083-.667A6,6,0,0,0,33.5,24.954,5.988,5.988,0,0,0,38,27a1,1,0,0,0,1-1V20a1,1,0,0,0-1-1,5.988,5.988,0,0,0-4.5,2.046A5.984,5.984,0,0,0,23.506,22.6a1,1,0,0,0,0,.8,6,6,0,0,0,4.8,3.548,2.79,2.79,0,0,0-.426.344,3,3,0,0,0,0,4.243l6.485,6.485a3,3,0,0,0-.829,4.828l3.536,3.536a4,4,0,0,0,5.657,0L58.051,61.707a1,1,0,0,0,1.414-1.414L43.435,44.264a1,1,0,0,0-1.414,0l-.708.707a2.049,2.049,0,0,1-2.828,0L34.95,41.436a1,1,0,1,1,1.414-1.415h0l2.119,2.12A1,1,0,0,0,39.9,40.728l-2.121-2.122-8.485-8.484a1,1,0,0,1,0-1.415,1.023,1.023,0,0,1,1.414,0l5.657,5.657h0l2.119,2.12A1,1,0,0,0,39.9,35.071L37.778,32.95h0a1,1,0,0,1,0-1.413,1,1,0,0,1,1.414,0l2.121,2.121a1,1,0,0,0,1.415-1.414l-2.122-2.121a1,1,0,0,1,0-1.415,1.025,1.025,0,0,1,1.415,0l1.415,1.414h0l1.413,1.413a1,1,0,0,0,1.414-1.414l-1.413-1.414h0a1,1,0,0,1,0-1.415,1.024,1.024,0,0,1,1.413,0L51.92,32.95a3,3,0,0,1,0,4.242,1,1,0,0,0,0,1.414l8.373,8.373a1,1,0,0,0,1.414-1.414ZM37,21.127v3.746a4,4,0,0,1-2.43-1.833c0-.027,0-.053,0-.08A4,4,0,0,1,37,21.127ZM25.541,23a4,4,0,0,1,1.65-1.557A.979.979,0,0,0,27,22a1,1,0,1,0,1.323-.935,3.924,3.924,0,0,1,4.108,1.893c0,.029,0,.055,0,.084A3.988,3.988,0,0,1,25.541,23Z"/><path d="M30,43a1,1,0,0,0,0-2H20a1,1,0,0,0-1,1v4a1,1,0,0,0,1,1H30a1,1,0,0,0,0-2H21V43Z"/></g></g></svg>
